PathFileType	4	(X/Y/Z)	C:/Users/opensim2020/Desktop/walking_exp_matlab/subject06_walking22_straight_03.trc	
DataRate	CameraRate	NumFrames	NumMarkers	Units	OrigDataRate	OrigDataStartFrame	OrigNumFrames	
100.00	100.00	4	44	mm	100.00	1684	77	
Frame#	Time	LFHD			RFHD			LBHD			RBHD			C7			T10			CLAV			STRN			RBAK			LSHO			LUPA			LELB			LFRM			LWRA			LWRB			LFIN			RSHO			RUPA			RELB			RFRM			RWRA			RWRB			RFIN			LASI			RASI			LPSI			RPSI			LTHI			LKNE			LTIB			LANK			LHEE			LTOE			RTHI			RKNE			RTIB			RANK			RHEE			RTOE			*39			*40			*41			*42			*43			
		X1	Y1	Z1	X2	Y2	Z2	X3	Y3	Z3	X4	Y4	Z4	X5	Y5	Z5	X6	Y6	Z6	X7	Y7	Z7	X8	Y8	Z8	X9	Y9	Z9	X10	Y10	Z10	X11	Y11	Z11	X12	Y12	Z12	X13	Y13	Z13	X14	Y14	Z14	X15	Y15	Z15	X16	Y16	Z16	X17	Y17	Z17	X18	Y18	Z18	X19	Y19	Z19	X20	Y20	Z20	X21	Y21	Z21	X22	Y22	Z22	X23	Y23	Z23	X24	Y24	Z24	X25	Y25	Z25	X26	Y26	Z26	X27	Y27	Z27	X28	Y28	Z28	X29	Y29	Z29	X30	Y30	Z30	X31	Y31	Z31	X32	Y32	Z32	X33	Y33	Z33	X34	Y34	Z34	X35	Y35	Z35	X36	Y36	Z36	X37	Y37	Z37	X38	Y38	Z38	X39	Y39	Z39	X40	Y40	Z40	X41	Y41	Z41	X42	Y42	Z42	X43	Y43	Z43	X44	Y44	Z44	

1	0.000	1371.80579	-557.34583	1630.69165	1503.16296	-542.99261	1630.52368	1390.51892	-692.83545	1587.08423	1519.09436	-677.00970	1591.10803	1446.18079	-697.79950	1437.68127	1448.70776	-772.68634	1115.58960	1448.76233	-595.87610	1350.09631	1448.16577	-576.20471	1172.66943	1528.48718	-792.41937	1280.95850	1285.91626	-645.99945	1385.52515	1205.20093	-700.37207	1196.63904	1186.57458	-739.14252	1092.54626	1150.37854	-759.97400	946.77716	1176.89392	-735.96558	815.65991	1143.78638	-797.16046	833.24329	1131.46033	-782.39435	744.35107	1607.26746	-640.59760	1390.15186	1706.06506	-679.93488	1199.70044	1727.13550	-662.20258	1081.18201	1743.65320	-608.18726	975.69147	1704.43079	-503.00330	872.29871	1748.50574	-549.33838	851.47906	1745.49500	-484.37317	798.14185	1358.94568	-596.13538	942.02844	1577.04907	-618.47211	951.01422	1365.06079	-754.27502	971.22461	1532.53638	-767.27802	986.39642	1291.22388	-571.56989	642.05505	1323.65100	-490.62524	501.69946	1343.71619	-488.46921	247.84430	1390.50000	-466.93289	78.97163	1440.20593	-502.03503	60.68421	1389.38062	-324.05716	69.50965	1625.34253	-721.50757	628.05164	1606.42700	-742.89789	502.76547	1608.96484	-855.61963	256.86591	1564.72864	-917.08582	78.70000	1522.01050	-963.54071	57.95924	1565.20911	-769.62628	36.39820	1437.73608	-647.36499	1681.03125												 
2	0.010	1372.03564	-544.22809	1627.77039	1503.35938	-529.66156	1627.72668	1391.08289	-679.63605	1583.91821	1519.60205	-663.57928	1588.08374	1446.94897	-684.67621	1434.81042	1449.46948	-758.97711	1112.42896	1449.36816	-582.24530	1347.13342	1449.03601	-562.55743	1169.79626	1529.69275	-778.70258	1278.10376	1286.48560	-632.83490	1382.34412	1205.76440	-689.92963	1194.43726	1187.28333	-729.91272	1090.85132	1150.43982	-754.21735	945.90942	1175.60706	-732.44910	814.05402	1143.35010	-793.80811	833.22888	1130.44714	-781.55951	744.10876	1607.89575	-626.72607	1387.55762	1707.41406	-665.19818	1197.42102	1728.89453	-645.89148	1079.27356	1744.64233	-589.32208	975.45081	1703.76880	-481.64487	875.53363	1748.22485	-526.98572	853.01868	1744.39722	-460.28885	801.83978	1360.06860	-580.98517	939.24707	1577.45264	-605.55200	947.75507	1365.41907	-739.12848	968.14417	1532.66504	-753.64771	983.30219	1291.27771	-559.34009	637.80115	1323.77502	-477.66895	497.69501	1341.95532	-460.90988	244.64131	1387.74890	-428.52890	76.96446	1437.21704	-463.45218	56.85905	1387.48022	-285.31952	75.57033	1625.63660	-711.19623	625.76599	1606.97266	-734.72546	500.70593	1608.82898	-851.74377	256.80545	1564.72168	-916.28906	80.04334	1522.03833	-963.17810	60.23925	1565.10071	-769.51788	36.22354	1438.14026	-634.22852	1678.02258												 
3	0.020	1372.15881	-531.02686	1624.78857	1503.51819	-516.22357	1624.83777	1391.54138	-666.33722	1580.66943	1520.12549	-650.08539	1584.99304	1447.25684	-670.58240	1431.60950	1450.07593	-745.16010	1109.17261	1449.81177	-568.63501	1344.00256	1449.82971	-548.90637	1166.80359	1530.75366	-765.08923	1275.10876	1286.90161	-619.29224	1378.98486	1206.31006	-679.12268	1192.12366	1187.80444	-720.82635	1089.17969	1150.46436	-747.98627	944.91150	1174.52673	-728.41229	812.48212	1143.15100	-789.87268	833.18329	1129.82898	-779.79779	743.73303	1608.39502	-612.75256	1384.82837	1708.66321	-650.37170	1195.03613	1730.40076	-629.86127	1077.30945	1745.48022	-570.80420	975.11761	1703.20947	-460.89719	878.54169	1748.02734	-504.95923	854.50861	1743.30664	-436.85135	805.45996	1360.95166	-565.48737	936.37128	1578.75122	-591.14606	945.08209	1365.25989	-724.36084	965.26617	1532.47107	-739.25946	979.98822	1290.96191	-546.73285	633.17047	1323.93433	-464.56628	493.46869	1340.06580	-434.12891	242.17014	1384.92944	-392.01276	76.14271	1433.60950	-425.65515	53.98204	1385.72205	-248.84488	82.26952	1626.02832	-700.66736	623.51666	1607.51685	-726.00531	498.70004	1608.79712	-847.42896	256.84473	1564.68457	-915.23041	81.65398	1522.14221	-962.65393	63.02479	1564.94727	-769.49561	36.03403	1438.45764	-621.02301	1674.88245												 
4	0.030	1372.20166	-517.78497	1621.84070	1503.54041	-502.70844	1622.02002	1391.88440	-652.84503	1577.39502	1520.35596	-636.34430	1581.75146	1447.72766	-657.27087	1428.71497	1450.39966	-731.07434	1106.01794	1450.13953	-554.66315	1340.84570	1450.32495	-535.20892	1163.70020	1531.59558	-751.15997	1272.17212	1287.12158	-605.56848	1375.69727	1206.83557	-667.94507	1189.69995	1188.27258	-711.27271	1087.40149	1150.45911	-741.34698	943.89502	1173.56152	-723.58057	810.94550	1143.03027	-785.00256	832.84698	1129.34802	-777.12042	743.33044	1608.74927	-598.63458	1382.10413	1709.72681	-635.42212	1192.55859	1731.82434	-613.87494	1075.32410	1746.16235	-552.65979	974.72705	1702.77808	-440.65482	881.33655	1747.82666	-483.52475	855.92926	1742.39185	-414.06628	808.89581	1361.69946	-549.54968	933.49866	1579.86499	-576.94220	942.24780	1364.86072	-708.30212	961.99353	1532.12683	-725.49036	976.85797	1290.16895	-534.25232	628.62158	1324.02612	-451.13675	489.54373	1338.09253	-408.83871	240.49333	1381.77490	-357.81110	76.40965	1429.94690	-390.62415	52.23859	1383.54065	-214.63728	89.50259	1626.53943	-689.80109	621.42859	1608.12146	-716.80151	496.83554	1608.73401	-842.99591	257.42993	1565.02930	-914.47253	83.72355	1522.32507	-962.10706	66.03877	1564.86584	-769.47723	35.84111	1438.62219	-607.74127	1671.71118												 
